<svg width="68" height="117" viewBox="0 0 68 117" fill="none" xmlns="http://www.w3.org/2000/svg">
<path fill-rule="evenodd" clip-rule="evenodd" d="M35.1429 2C35.1429 1.17157 34.4713 0.5 33.6429 0.5C32.8144 0.5 32.1429 1.17157 32.1429 2V21.0557H20.25C14.899 21.0557 9.75531 23.0941 5.95337 26.7412C2.1493 30.3903 0 35.3531 0 40.5418C0 45.7304 2.1493 50.6933 5.95337 54.3424C9.75531 57.9894 14.899 60.0279 20.25 60.0279H32.1429V93.0001H1.5C0.671573 93.0001 0 93.6717 0 94.5001C0 95.3286 0.671573 96.0001 1.5 96.0001H32.1429V115.056C32.1429 115.884 32.8144 116.556 33.6429 116.556C34.4713 116.556 35.1429 115.884 35.1429 115.056V96.0001H47.0357C52.3867 96.0001 57.5304 93.9617 61.3324 90.3146C65.1364 86.6655 67.2857 81.7027 67.2857 76.514C67.2857 71.3254 65.1364 66.3625 61.3324 62.7134C57.5304 59.0664 52.3867 57.0279 47.0357 57.0279H35.1429V24.0557H60.4286C61.257 24.0557 61.9286 23.3841 61.9286 22.5557C61.9286 21.7272 61.257 21.0557 60.4286 21.0557H35.1429V2ZM32.1429 24.0557H20.25C15.6554 24.0557 11.2608 25.8071 8.03013 28.9062C4.80158 32.0032 3 36.19 3 40.5418C3 44.8936 4.80158 49.0804 8.03013 52.1774C11.2608 55.2765 15.6554 57.0279 20.25 57.0279H32.1429V24.0557ZM35.1429 60.0279V93.0001H47.0357C51.6304 93.0001 56.0249 91.2487 59.2556 88.1496C62.4841 85.0526 64.2857 80.8658 64.2857 76.514C64.2857 72.1622 62.4841 67.9754 59.2556 64.8784C56.0249 61.7793 51.6304 60.0279 47.0357 60.0279H35.1429Z" fill="#597266"/>
</svg>
