<svg width="79" height="117" viewBox="0 0 79 117" fill="none" xmlns="http://www.w3.org/2000/svg">
<path fill-rule="evenodd" clip-rule="evenodd" d="M3.5 37.9722C3.5 18.9919 19.5583 3.5 39.5 3.5C59.4417 3.5 75.5 18.9919 75.5 37.9722C75.5 49.9917 69.0603 60.6122 59.2728 66.7856C59.0888 66.855 58.9237 66.9589 58.784 67.0885C53.2159 70.4782 46.6044 72.4445 39.5 72.4445C19.5583 72.4445 3.5 56.9525 3.5 37.9722ZM58.6274 70.6338C52.9704 73.6982 46.442 75.4445 39.5 75.4445C32.5606 75.4445 26.0345 73.6995 20.3789 70.6372L14.6201 112.228L38.7518 98.3389C39.215 98.0723 39.785 98.0723 40.2482 98.3389L64.3804 112.228L58.6274 70.6338ZM17.5812 68.9692C7.28251 62.2356 0.5 50.8849 0.5 37.9722C0.5 17.2187 18.0203 0.5 39.5 0.5C60.9797 0.5 78.5 17.2187 78.5 37.9722C78.5 50.8822 71.7203 62.2309 61.4252 68.9651L67.7716 114.85C67.85 115.417 67.5988 115.98 67.124 116.299C66.6492 116.619 66.0337 116.641 65.5375 116.356L39.5 101.37L13.4625 116.356C12.9663 116.641 12.3507 116.619 11.8759 116.299C11.4011 115.979 11.1499 115.417 11.2285 114.85L17.5812 68.9692Z" fill="#597266"/>
</svg>
