<svg width="19" height="19" viewBox="0 0 19 19" fill="none" xmlns="http://www.w3.org/2000/svg">
<path d="M7.31578 18C7.75179 18 8.10525 17.6297 8.10525 17.1729C8.10525 16.7161 7.75179 16.3459 7.31578 16.3459C6.87977 16.3459 6.52631 16.7161 6.52631 17.1729C6.52631 17.6297 6.87977 18 7.31578 18Z" stroke="#597266" stroke-linecap="round" stroke-linejoin="round"/>
<path d="M16 18C16.436 18 16.7895 17.6297 16.7895 17.1729C16.7895 16.7161 16.436 16.3459 16 16.3459C15.564 16.3459 15.2105 16.7161 15.2105 17.1729C15.2105 17.6297 15.564 18 16 18Z" stroke="#597266" stroke-linecap="round" stroke-linejoin="round"/>
<path d="M1 0.631561H4.15789L6.27368 11.706C6.34587 12.0868 6.54361 12.4288 6.83227 12.6723C7.12093 12.9157 7.48213 13.045 7.85263 13.0376H15.5263C15.8968 13.045 16.258 12.9157 16.5467 12.6723C16.8353 12.4288 17.0331 12.0868 17.1053 11.706L18.3684 4.7669H4.94737" stroke="#597266" stroke-linecap="round" stroke-linejoin="round"/>
</svg>
