<svg width="16" height="16" viewBox="0 0 16 16" fill="none" xmlns="http://www.w3.org/2000/svg">
<path d="M7.58926 3.73157C5.43613 3.73157 3.69941 5.48498 3.69941 7.65881C3.69941 9.83264 5.43613 11.5861 7.58926 11.5861C9.74238 11.5861 11.4791 9.83264 11.4791 7.65881C11.4791 5.48498 9.74238 3.73157 7.58926 3.73157ZM7.58926 10.212C6.19785 10.212 5.06035 9.06702 5.06035 7.65881C5.06035 6.25061 6.19447 5.10559 7.58926 5.10559C8.98405 5.10559 10.1182 6.25061 10.1182 7.65881C10.1182 9.06702 8.98066 10.212 7.58926 10.212ZM12.5455 3.57092C12.5455 4.0802 12.1393 4.48694 11.6382 4.48694C11.1338 4.48694 10.7309 4.07678 10.7309 3.57092C10.7309 3.06506 11.1372 2.65491 11.6382 2.65491C12.1393 2.65491 12.5455 3.06506 12.5455 3.57092ZM15.1218 4.50061C15.0643 3.27356 14.7867 2.18665 13.8963 1.29114C13.0093 0.39563 11.9327 0.115356 10.7174 0.053833C9.46478 -0.0179443 5.71035 -0.0179443 4.45775 0.053833C3.24577 0.111938 2.16921 0.392212 1.27884 1.28772C0.388477 2.18323 0.114258 3.27014 0.0533203 4.49719C-0.0177734 5.76184 -0.0177734 9.55237 0.0533203 10.817C0.110872 12.0441 0.388477 13.131 1.27884 14.0265C2.16921 14.922 3.24238 15.2023 4.45775 15.2638C5.71035 15.3356 9.46478 15.3356 10.7174 15.2638C11.9327 15.2057 13.0093 14.9254 13.8963 14.0265C14.7833 13.131 15.0609 12.0441 15.1218 10.817C15.1929 9.55237 15.1929 5.76526 15.1218 4.50061ZM13.5036 12.1739C13.2395 12.8439 12.7283 13.36 12.0614 13.63C11.0627 14.0299 8.6929 13.9376 7.58926 13.9376C6.48561 13.9376 4.11243 14.0265 3.11712 13.63C2.45358 13.3634 1.94238 12.8473 1.67493 12.1739C1.27884 11.1656 1.37025 8.77307 1.37025 7.65881C1.37025 6.54456 1.28223 4.14856 1.67493 3.14368C1.939 2.47375 2.4502 1.95764 3.11712 1.68762C4.11582 1.28772 6.48561 1.38 7.58926 1.38C8.6929 1.38 11.0661 1.29114 12.0614 1.68762C12.7249 1.95422 13.2361 2.47034 13.5036 3.14368C13.8997 4.15198 13.8083 6.54456 13.8083 7.65881C13.8083 8.77307 13.8997 11.1691 13.5036 12.1739Z" fill="#597266"/>
</svg>
