<svg width="22" height="26" viewBox="0 0 22 26" fill="none" xmlns="http://www.w3.org/2000/svg">
<path d="M21 11C21 18.7778 11 25.4444 11 25.4444C11 25.4444 1 18.7778 1 11C1 8.34784 2.05357 5.8043 3.92893 3.92893C5.8043 2.05357 8.34784 1 11 1C13.6522 1 16.1957 2.05357 18.0711 3.92893C19.9464 5.8043 21 8.34784 21 11Z" stroke="#463A3A" stroke-linecap="round" stroke-linejoin="round"/>
<path d="M11.0003 14.3333C12.8413 14.3333 14.3337 12.8409 14.3337 11C14.3337 9.15901 12.8413 7.66663 11.0003 7.66663C9.15938 7.66663 7.66699 9.15901 7.66699 11C7.66699 12.8409 9.15938 14.3333 11.0003 14.3333Z" stroke="#463A3A" stroke-linecap="round" stroke-linejoin="round"/>
</svg>
