<svg width="18" height="22" viewBox="0 0 18 22" fill="none" xmlns="http://www.w3.org/2000/svg">
<path d="M17.1905 9.09524C17.1905 15.3915 9.09524 20.7884 9.09524 20.7884C9.09524 20.7884 1 15.3915 1 9.09524C1 6.94825 1.85289 4.88919 3.37104 3.37104C4.88919 1.85289 6.94825 1 9.09524 1C11.2422 1 13.3013 1.85289 14.8194 3.37104C16.3376 4.88919 17.1905 6.94825 17.1905 9.09524Z" stroke="#ABAEAC" stroke-linecap="round" stroke-linejoin="round"/>
<path d="M9.09561 11.7937C10.5859 11.7937 11.794 9.09526 11.794 9.09526C11.794 9.09526 10.5859 6.39685 9.09561 6.39685C7.60532 6.39685 6.3972 7.60497 6.3972 9.09526C6.3972 10.5856 7.60532 11.7937 9.09561 11.7937Z" stroke="#ABAEAC" stroke-linecap="round" stroke-linejoin="round"/>
</svg>
