<svg width="18" height="19" viewBox="0 0 18 19" fill="none" xmlns="http://www.w3.org/2000/svg">
<path d="M16.9995 13.7278V16.287C17.0004 16.5245 16.9545 16.7597 16.8648 16.9774C16.775 17.1951 16.6434 17.3905 16.4783 17.5511C16.3132 17.7117 16.1183 17.834 15.906 17.9101C15.6938 17.9862 15.4689 18.0145 15.2457 17.9931C12.7702 17.7078 10.3923 16.8109 8.30312 15.3742C6.35937 14.0644 4.71141 12.3169 3.47627 10.2558C2.11669 8.03034 1.27059 5.49657 1.00653 2.85976C0.986426 2.62386 1.01286 2.3861 1.08416 2.16163C1.15546 1.93716 1.27005 1.73089 1.42065 1.55596C1.57124 1.38102 1.75454 1.24125 1.95886 1.14555C2.16319 1.04985 2.38407 1.00031 2.60744 1.00008H5.02086C5.41128 0.996008 5.78977 1.14261 6.0858 1.41257C6.38182 1.68252 6.57517 2.05741 6.62981 2.46735C6.73168 3.28635 6.92059 4.09049 7.19295 4.86445C7.30118 5.16978 7.32461 5.50162 7.26045 5.82063C7.19629 6.13965 7.04723 6.43248 6.83093 6.66441L5.80925 7.7478C6.95446 9.88348 8.62206 11.6518 10.6361 12.8662L11.6578 11.7828C11.8765 11.5534 12.1527 11.3954 12.4535 11.3273C12.7544 11.2593 13.0673 11.2841 13.3552 11.3989C14.0851 11.6877 14.8435 11.888 15.6158 11.9961C16.0066 12.0545 16.3635 12.2632 16.6186 12.5825C16.8737 12.9018 17.0093 13.3094 16.9995 13.7278Z" stroke="#ABAEAC" stroke-linecap="round" stroke-linejoin="round"/>
</svg>
