<?xml version="1.0" encoding="utf-8"?>
<!-- Generator: Adobe Illustrator 22.1.0, SVG Export Plug-In . SVG Version: 6.00 Build 0)  -->
<svg version="1.1" id="Слой_1" xmlns="http://www.w3.org/2000/svg" xmlns:xlink="http://www.w3.org/1999/xlink" x="0px" y="0px"
	 viewBox="0 0 54.1 48.9" style="enable-background:new 0 0 54.1 48.9;" xml:space="preserve">
<style type="text/css">
	.st0{fill:#010202;}
</style>
<g>
	<g>
		<g>
			<path class="st0" d="M28.3,1.4C28.2,0.7,27.9,0,27,0c-2.1,0-1.4,4.2-1.4,5.6c0,2.4,0,4.8,0,7.2c0,0.6,0,1.2,0,1.8l2.5,0
				c0.1-4.2,0.2-8.3,0.3-12.5C28.3,1.9,28.3,1.7,28.3,1.4z"/>
		</g>
		<g>
			<path class="st0" d="M26.7,29.7c-0.3,0-0.6-0.1-0.9-0.2c-0.9-0.4-1.5-1-1.9-2c-1.6-4.3,2.7-12.9,2.9-13.3l0.1-0.3l0.1,0.3
				c0.1,0.5,3.2,12.9,0.6,15.1C27.4,29.5,27.1,29.7,26.7,29.7z M26.9,14.6c-0.7,1.6-4.1,9.1-2.7,12.8c0.3,0.9,0.9,1.5,1.7,1.8
				c0.7,0.3,1.2,0.2,1.6-0.1C29.8,27.2,27.4,16.5,26.9,14.6z"/>
		</g>
		<g>
			<path class="st0" d="M27.9,29.8c-0.4,0-0.8-0.2-1.4-0.7c-4.1-4,0.1-14.6,0.2-15l0.1-0.2L27,14c2.6,4.2,3.6,13.9,1.6,15.6
				C28.4,29.7,28.2,29.8,27.9,29.8z M26.9,14.3c-0.6,1.6-3.9,11-0.2,14.6c0.7,0.7,1.3,0.9,1.7,0.5C30.2,27.9,29.6,18.8,26.9,14.3z"
				/>
		</g>
		<g>
			<path class="st0" d="M26.5,29.8c-0.1,0-0.2,0-0.2-0.1c-1.6-1.2,0.4-15.1,0.5-15.7l0.1-0.4L27,14c1,2.3,1.1,14.7-0.2,15.8
				C26.7,29.8,26.6,29.8,26.5,29.8z M26.9,14.5c-0.6,4.3-1.7,14.1-0.5,15c0.1,0.1,0.1,0.1,0.2,0C27.8,28.6,27.7,17.6,26.9,14.5z"/>
		</g>
		<g>
			<path class="st0" d="M27,32.6c-5.9,0-10.7-4.8-10.7-10.7c0-0.8,0.1-1.6,0.3-2.4l0-0.1h4.7v0.2h-4.6c-0.2,0.7-0.2,1.5-0.2,2.2
				c0,5.8,4.7,10.5,10.5,10.5c5.8,0,10.5-4.7,10.5-10.5c0-0.7-0.1-1.5-0.2-2.2h-4.7v-0.2h4.9l0,0.1c0.2,0.8,0.3,1.6,0.3,2.4
				C37.7,27.8,32.9,32.6,27,32.6z"/>
		</g>
	</g>
	<g>
		<path class="st0" d="M18,48.9v-2.4h0.8c0.2,0,0.4,0.1,0.6,0.2c0.1,0.1,0.2,0.2,0.2,0.4c0,0.1,0,0.3-0.1,0.4
			c-0.1,0.1-0.2,0.2-0.3,0.2v0c0.2,0,0.3,0.1,0.4,0.2c0.1,0.1,0.2,0.2,0.2,0.4c0,0.2-0.1,0.4-0.2,0.5c-0.2,0.1-0.4,0.2-0.6,0.2H18z
			 M18.4,46.8v0.7h0.3c0.1,0,0.2,0,0.3-0.1c0.1-0.1,0.1-0.2,0.1-0.3c0-0.2-0.1-0.3-0.4-0.3H18.4z M18.4,47.8v0.8h0.3
			c0.1,0,0.3,0,0.3-0.1c0.1-0.1,0.1-0.2,0.1-0.3c0-0.3-0.2-0.4-0.5-0.4H18.4z"/>
		<path class="st0" d="M23.1,48.9h-0.4l-0.2-0.6h-1l-0.2,0.6h-0.4l0.9-2.4h0.5L23.1,48.9z M22.4,48L22,47c0,0,0-0.1,0-0.2h0
			c0,0.1,0,0.1,0,0.2l-0.3,1H22.4z"/>
		<path class="st0" d="M26.3,48.9h-0.5l-0.8-1.1c0,0-0.1-0.1-0.1-0.1h0v1.2h-0.4v-2.4h0.4v1.1h0c0,0,0-0.1,0.1-0.1l0.8-1.1h0.5
			l-1,1.2L26.3,48.9z"/>
		<path class="st0" d="M28.9,48.9h-1.4v-2.4h1.3v0.3H28v0.7h0.8v0.3H28v0.7h1V48.9z"/>
		<path class="st0" d="M32.3,48.9h-0.5l-0.4-0.7c0-0.1-0.1-0.1-0.1-0.2c0,0-0.1-0.1-0.1-0.1c0,0-0.1,0-0.1-0.1c0,0-0.1,0-0.1,0h-0.2
			v1h-0.4v-2.4h0.8c0.1,0,0.2,0,0.3,0c0.1,0,0.2,0.1,0.3,0.1c0.1,0.1,0.1,0.1,0.2,0.2c0,0.1,0.1,0.2,0.1,0.3c0,0.1,0,0.2,0,0.2
			c0,0.1-0.1,0.1-0.1,0.2c0,0.1-0.1,0.1-0.2,0.1c-0.1,0-0.1,0.1-0.2,0.1v0c0,0,0.1,0.1,0.1,0.1c0,0,0.1,0.1,0.1,0.1
			c0,0,0.1,0.1,0.1,0.1c0,0,0.1,0.1,0.1,0.1L32.3,48.9z M30.8,46.8v0.8h0.3c0.1,0,0.1,0,0.2,0c0.1,0,0.1,0,0.1-0.1
			c0,0,0.1-0.1,0.1-0.1c0-0.1,0-0.1,0-0.2c0-0.1,0-0.2-0.1-0.3c-0.1-0.1-0.2-0.1-0.3-0.1H30.8z"/>
		<path class="st0" d="M35.2,46.5L34.4,48v0.9H34V48l-0.8-1.6h0.5l0.5,1c0,0,0,0.1,0.1,0.1h0c0,0,0-0.1,0.1-0.1l0.5-1H35.2z"/>
	</g>
	<g>
		<g>
			<path class="st0" d="M9.7,42c-0.3,0-0.7-0.1-1-0.2c-0.7-0.3-1.3-0.9-1.8-1.4L4.7,38c-0.8-0.8-1.6-1.6-2.6-1.7c-0.1,0-0.1,0-0.2,0
				c-0.5,0-1.1,0.2-1.4,0.6c-0.3,0.3-0.4,0.7-0.3,1c0,0.1,0,0.1-0.1,0.1c-0.1,0-0.1,0-0.1-0.1c-0.1-0.4,0-0.9,0.3-1.3
				c0.4-0.5,1.2-0.8,1.8-0.7C3.2,36.2,4,37,4.9,37.8L7,40.1c0.5,0.5,1,1.1,1.7,1.4c0.6,0.3,1.5,0.3,2-0.1c0.4-0.4,0.6-1,0.6-1.4
				c0-0.2,0-0.5,0-0.7c-0.5-0.1-1-0.3-1.2-0.8c0-0.1,0-0.1,0.1-0.1c0.4-0.2,1,0,1.2,0.4c0.1,0.1,0.1,0.2,0.2,0.4c0.1,0,0.2,0,0.3,0
				c0.4-0.1,0.8-0.2,1.2-0.4c0.2-0.1,0.4-0.2,0.6-0.3c0.5-0.2,1-0.3,1.6-0.3c0.1,0,0.3,0,0.4,0c0.2,0,0.5-0.1,0.7,0
				c0.3,0,0.5,0.1,0.6,0.3c0,0.1,0,0.1-0.1,0.2c-0.1,0-0.1,0-0.2,0c-0.1-0.1-0.2-0.2-0.4-0.2c-0.1,0-0.3,0-0.4,0.1
				c-0.3,0.1-0.5,0.4-0.7,0.7c-0.2,0.4-0.3,0.9-0.1,1.2c0.1,0.4,0.5,0.7,0.9,0.6c0.4-0.1,0.6-0.5,0.7-1.3c0-0.1,0-0.2,0-0.2
				c0-0.1,0.1-0.1,0.1-0.1c0.1,0,0.1,0.1,0.1,0.1c0,0.1,0,0.1,0,0.2c0,0.4,0,1,0.5,1.3c0.2,0.1,0.6,0.2,1,0.2c1.1,0,2.2-0.5,3-1.3
				c-0.1-0.3-0.1-0.5-0.1-0.8c0-0.8,0.1-1.9,0.8-2.5c0.2-0.2,0.5-0.3,0.7-0.1c0.1,0.1,0.2,0.3,0.2,0.5c0,1.1-0.6,2.2-1.3,3
				c0.1,0.2,0.1,0.4,0.3,0.6c0.5,0.7,1.6,0.5,2.5,0.2c0.7-0.3,1.6-0.8,2.3-1.4c0-0.1,0-0.1,0-0.2l0-0.1c-0.1-0.4,0-0.7,0.1-0.9
				c0.1-0.3,0.4-0.5,0.7-0.6c0.2-0.1,0.5,0,0.6,0.2c0.1,0.1,0.1,0.2,0.1,0.4c-0.1,0.4-0.6,0.9-1.2,1.4c0,0.2,0.1,0.4,0.2,0.5
				c0.2,0.2,0.6,0.2,0.9,0.2c0.6,0,1.5-0.1,2.3-0.3c0.9-0.3,1.6-1,1.9-1.7c0-0.1,0.1-0.1,0.1-0.1c0.1,0,0.1,0.1,0.1,0.1
				c0,0.2,0,0.5-0.1,0.7c0.2-0.6,0.4-1.1,0.8-1.5c0.8-0.9,1.9-1.3,3-1.3c0.2,0,0.4,0,0.6,0.1c0.4,0,0.8,0.1,1.2,0
				c0.3-0.1,0.6-0.3,0.8-0.6c0.1-0.1,0.1-0.3,0-0.6c0-0.1,0-0.1,0.1-0.1c0.1,0,0.1,0,0.1,0.1c0.1,0.2,0.1,0.5-0.1,0.8
				c-0.2,0.3-0.6,0.6-1,0.7c-0.4,0.1-0.8,0-1.2,0c-0.2,0-0.4,0-0.6-0.1c0,0-0.1,0-0.1,0c-1,0-2.1,0.5-2.7,1.2c-0.7,0.8-1,1.9-0.9,3
				c0,0.1,0,0.1-0.1,0.1c-0.1,0-0.1,0-0.1-0.1c-0.1-0.6-0.1-1.2-0.1-1.8c-0.4,0.6-1,1-1.7,1.3c-0.8,0.3-1.8,0.3-2.4,0.3c0,0,0,0,0,0
				c-0.3,0-0.7,0-1-0.3c-0.2-0.1-0.2-0.3-0.3-0.5c-0.7,0.6-1.6,1.1-2.2,1.3c-0.9,0.4-2.1,0.5-2.7-0.3c-0.1-0.2-0.2-0.4-0.3-0.6
				c-0.8,0.8-1.9,1.2-3,1.2c-0.5,0-0.8-0.1-1.1-0.2c-0.3-0.2-0.5-0.5-0.5-0.8c-0.2,0.4-0.4,0.7-0.7,0.7c-0.5,0.1-1-0.3-1.2-0.7
				c-0.1-0.4-0.1-0.9,0.1-1.4c0.1-0.3,0.3-0.5,0.5-0.6c-0.1,0-0.2,0-0.4,0c-0.5,0-1,0.1-1.5,0.3c-0.2,0.1-0.4,0.2-0.6,0.3
				c-0.4,0.2-0.8,0.4-1.3,0.4c-0.1,0-0.2,0-0.3,0c0,0.2,0,0.4,0,0.7c-0.1,0.5-0.2,1.1-0.7,1.6C10.6,41.8,10.2,42,9.7,42z M22.8,36.5
				c-0.1,0-0.2,0.1-0.3,0.1c-0.6,0.6-0.7,1.5-0.7,2.3c0,0.2,0,0.4,0,0.6c0.7-0.7,1.1-1.7,1.2-2.7c0-0.1,0-0.2-0.1-0.3
				C22.9,36.5,22.8,36.5,22.8,36.5z M27.8,37.7c0,0-0.1,0-0.1,0c-0.2,0.1-0.5,0.2-0.6,0.5C27,38.4,27,38.7,27.1,39l0,0.1
				c0,0,0,0.1,0,0.1c0.6-0.5,1-0.9,1.1-1.2c0-0.1,0-0.1,0-0.1C28,37.7,27.9,37.7,27.8,37.7z M10.4,38.5c0.2,0.3,0.5,0.5,0.9,0.6
				c0-0.1-0.1-0.1-0.1-0.2C11.1,38.6,10.7,38.4,10.4,38.5z"/>
		</g>
		<g>
			<path class="st0" d="M45.3,41.3c-0.2,0-0.4,0-0.6-0.1c-0.4-0.2-0.7-0.5-0.9-1c0,0.1-0.1,0.2-0.1,0.3c-0.1,0.2-0.4,0.4-0.6,0.4
				c-0.2,0-0.4,0-0.5-0.1c-0.1-0.1-0.2-0.2-0.3-0.4c-0.2-0.4,0-0.9,0.3-1.3c0.1-0.1,0.1-0.1,0.2-0.2c-1.5,0.1-4.3,0.8-5.8,1.8
				c-0.2,0.1-0.6,0.4-1,0.2c-0.4-0.2-0.3-0.6-0.2-1c0.1-0.3,0.1-0.6,0-0.8c0-0.1,0-0.1,0.1-0.1c0,0,0.1,0,0.1,0.1
				c0.1,0.3,0.1,0.6,0,0.9c-0.1,0.4-0.1,0.6,0.1,0.8c0.2,0.1,0.5,0,0.7-0.2c1.9-1.1,5.3-1.9,6.6-1.8c0.1,0,0.3,0,0.4,0.1
				c0,0,0.1,0.1,0.1,0.1c0,0,0,0,0,0c0,0.1-0.1,0.1-0.1,0.1c-0.1,0-0.2,0-0.3-0.1c0,0,0,0,0,0c-0.3,0-0.5,0.1-0.8,0.3
				c-0.3,0.3-0.4,0.7-0.3,1.1c0.1,0.1,0.1,0.2,0.2,0.3c0.1,0.1,0.3,0.1,0.4,0.1c0.2,0,0.4-0.2,0.5-0.3c0.2-0.2,0.2-0.5,0.2-0.8
				c0-0.1,0-0.1,0-0.2c0-0.1,0.1-0.1,0.1-0.1c0,0,0,0,0,0c0.1,0,0.1,0.1,0.1,0.1c0,0.1,0,0.1,0,0.2c0,0.6,0.3,1.2,0.8,1.4
				c0.8,0.3,1.6-0.1,2-0.4c0.4-0.2,0.7-0.5,1-0.8c0.2-0.2,0.5-0.4,0.7-0.6c1.1-0.8,2.5-1.3,3.9-1.3c0,0,0,0,0,0c0.3,0,0.7,0,1,0.2
				c0.3,0.2,0.6,0.6,0.5,1c0,0.1-0.1,0.1-0.1,0.1c-0.1,0-0.1-0.1-0.1-0.1c0.1-0.3-0.1-0.6-0.4-0.7c-0.3-0.2-0.6-0.2-0.9-0.2
				c-1.3,0-2.7,0.4-3.8,1.2c-0.2,0.2-0.5,0.4-0.7,0.6c-0.3,0.3-0.7,0.6-1.1,0.8C46.5,41,45.9,41.3,45.3,41.3z"/>
		</g>
		<g>
			<circle class="st0" cx="35.6" cy="38.1" r="0.2"/>
		</g>
	</g>
</g>
</svg>
