<svg width="38" height="38" viewBox="0 0 38 38" fill="none" xmlns="http://www.w3.org/2000/svg">
<path d="M13.8613 36.3684C14.7491 36.3684 15.4689 35.6144 15.4689 34.6842C15.4689 33.754 14.7491 33 13.8613 33C12.9734 33 12.2536 33.754 12.2536 34.6842C12.2536 35.6144 12.9734 36.3684 13.8613 36.3684Z" stroke="#0C0C0C" stroke-width="2" stroke-linecap="round" stroke-linejoin="round"/>
<path d="M31.5455 36.3684C32.4333 36.3684 33.1531 35.6144 33.1531 34.6842C33.1531 33.754 32.4333 33 31.5455 33C30.6576 33 29.9378 33.754 29.9378 34.6842C29.9378 35.6144 30.6576 36.3684 31.5455 36.3684Z" stroke="#0C0C0C" stroke-width="2" stroke-linecap="round" stroke-linejoin="round"/>
<path d="M1 1H7.43063L11.7391 23.5516C11.8862 24.327 12.2888 25.0235 12.8766 25.5193C13.4645 26.015 14.2 26.2783 14.9545 26.2632H30.5809C31.3354 26.2783 32.0709 26.015 32.6587 25.5193C33.2465 25.0235 33.6492 24.327 33.7962 23.5516L36.3685 9.42106H9.03829" stroke="#0C0C0C" stroke-width="2" stroke-linecap="round" stroke-linejoin="round"/>
</svg>
