<svg width="111" height="106" viewBox="0 0 111 106" fill="none" xmlns="http://www.w3.org/2000/svg">
<path fill-rule="evenodd" clip-rule="evenodd" d="M58.3257 3.50016C50.7255 3.48115 43.2305 5.18464 36.4517 8.46912L36.4461 8.47182C28.3196 12.3679 21.4931 18.3531 16.7247 25.7495C11.9568 33.1452 9.4329 41.6624 9.4294 50.3475L9.42939 50.351C9.40966 57.611 11.1778 64.7756 14.5931 71.2619C14.7866 71.6294 14.8191 72.0607 14.6828 72.4531L4.40209 102.039L35.3408 92.1458C35.7075 92.0286 36.1053 92.0568 36.4517 92.2247C43.2305 95.5091 50.7255 97.2126 58.3257 97.1936L58.3289 97.1936C67.421 97.1902 76.3287 94.7585 84.0535 90.1759C91.778 85.5936 98.0112 79.044 102.063 71.2676L102.066 71.2619C105.481 64.7756 107.249 57.611 107.23 50.351V47.5465C106.56 36.0938 101.515 25.2662 93.0404 17.1365C84.5626 9.0041 73.2475 4.14416 61.2542 3.50016H58.3295L58.3257 3.50016ZM58.3313 0.500162C50.2812 0.480318 42.3376 2.28426 35.1466 5.76787C26.5327 9.89817 19.2786 16.2515 14.2033 24.1239C9.12745 31.9973 6.43347 41.0766 6.4294 50.3446C6.40919 57.8815 8.19327 65.3167 11.6372 72.0777L0.583084 103.889C0.396557 104.426 0.529382 105.022 0.926164 105.429C1.32295 105.836 1.91555 105.983 2.45682 105.81L35.6881 95.1844C42.736 98.499 50.484 100.213 58.3332 100.194C67.9561 100.189 77.3918 97.616 85.5842 92.756C93.7769 87.8959 100.406 80.9387 104.722 72.6567C108.362 65.7427 110.25 58.098 110.23 50.3457C110.23 50.3447 110.23 50.3438 110.23 50.3428L110.23 47.503C110.23 47.4742 110.229 47.4455 110.227 47.4168C109.523 35.1744 104.136 23.6234 95.1171 14.9716C86.0994 6.32122 74.0835 1.1749 61.3734 0.502258C61.347 0.500861 61.3206 0.500162 61.2942 0.500162H58.3313Z" fill="white"/>
</svg>
