<svg width="98" height="94" viewBox="0 0 98 94" fill="none" xmlns="http://www.w3.org/2000/svg">
<path fill-rule="evenodd" clip-rule="evenodd" d="M3.5 47.2222C3.5 23.1333 23.8756 3.5 49.1429 3.5C74.4101 3.5 94.7857 23.1333 94.7857 47.2222C94.7857 71.3112 74.4101 90.9445 49.1429 90.9445C23.8756 90.9445 3.5 71.3112 3.5 47.2222ZM49.1429 0.5C22.3376 0.5 0.5 21.3601 0.5 47.2222C0.5 73.0844 22.3376 93.9445 49.1429 93.9445C75.9482 93.9445 97.7857 73.0844 97.7857 47.2222C97.7857 21.3601 75.9482 0.5 49.1429 0.5ZM31.4659 55.3409C30.9553 54.6899 30.0138 54.5752 29.3618 55.085C28.7092 55.5952 28.5938 56.538 29.104 57.1906L30.2792 56.2718C29.104 57.1906 29.1044 57.1911 29.1048 57.1916L29.1058 57.1929L29.1083 57.196L29.1151 57.2047L29.1367 57.2317L29.1762 57.2804L29.2111 57.323C29.2745 57.3999 29.3656 57.508 29.4837 57.643C29.7198 57.9129 30.0646 58.2906 30.5136 58.74C31.4105 59.6378 32.73 60.8286 34.4364 62.0191C37.8448 64.3969 42.8541 66.8111 49.1429 66.8111C55.4316 66.8111 60.4409 64.3969 63.8493 62.0191C65.5557 60.8286 66.8752 59.6378 67.7721 58.74C68.2211 58.2906 68.5659 57.9129 68.802 57.643C68.9201 57.508 69.0112 57.3999 69.0746 57.323L69.1127 57.2766L69.149 57.2317L69.1706 57.2047L69.1775 57.196L69.1799 57.1929L69.1809 57.1916C69.1813 57.1911 69.1817 57.1906 68 56.2667L69.1817 57.1906C69.6919 56.538 69.5765 55.5952 68.9239 55.085C68.2716 54.5749 67.3294 54.69 66.819 55.3419L66.8183 55.3428L66.8097 55.3535C66.8001 55.3655 66.7838 55.3857 66.7608 55.4135C66.7149 55.4691 66.6425 55.5553 66.5442 55.6676C66.3476 55.8924 66.0478 56.2213 65.6498 56.6197C64.8525 57.4178 63.6675 58.4881 62.1328 59.5587C59.0591 61.7031 54.6398 63.8111 49.1429 63.8111C43.6459 63.8111 39.2266 61.7031 36.1529 59.5587C34.6182 58.4881 33.4332 57.4178 32.6359 56.6197C32.2379 56.2213 31.9381 55.8924 31.7415 55.6676C31.6432 55.5553 31.5708 55.4691 31.5249 55.4135C31.5019 55.3857 31.4856 55.3655 31.476 55.3535L31.4666 55.3418L31.4659 55.3409ZM33.5 33.6555C33.5 32.8271 34.1716 32.1555 35 32.1555H35.0467C35.8752 32.1555 36.5468 32.8271 36.5468 33.6555C36.5468 34.4839 35.8752 35.1555 35.0467 35.1555H35C34.1716 35.1555 33.5 34.4839 33.5 33.6555ZM63.2857 32.1555C62.4573 32.1555 61.7857 32.8271 61.7857 33.6555C61.7857 34.4839 62.4573 35.1555 63.2857 35.1555H63.3325C64.1609 35.1555 64.8325 34.4839 64.8325 33.6555C64.8325 32.8271 64.1609 32.1555 63.3325 32.1555H63.2857Z" fill="#597266"/>
</svg>
