<svg width="25" height="25" viewBox="0 0 25 25" fill="none" xmlns="http://www.w3.org/2000/svg">
<path d="M12.1604 5.97916C8.71041 5.97916 5.92764 8.78869 5.92764 12.2719C5.92764 15.755 8.71041 18.5646 12.1604 18.5646C15.6104 18.5646 18.3932 15.755 18.3932 12.2719C18.3932 8.78869 15.6104 5.97916 12.1604 5.97916ZM12.1604 16.3629C9.93093 16.3629 8.10829 14.5282 8.10829 12.2719C8.10829 10.0155 9.9255 8.18078 12.1604 8.18078C14.3953 8.18078 16.2125 10.0155 16.2125 12.2719C16.2125 14.5282 14.3899 16.3629 12.1604 16.3629ZM20.1019 5.72175C20.1019 6.53778 19.451 7.1895 18.6481 7.1895C17.8399 7.1895 17.1944 6.5323 17.1944 5.72175C17.1944 4.91121 17.8453 4.25401 18.6481 4.25401C19.451 4.25401 20.1019 4.91121 20.1019 5.72175ZM24.23 7.21141C24.1377 5.24528 23.6929 3.5037 22.2663 2.06881C20.8451 0.633925 19.1201 0.184838 17.1727 0.0862576C15.1656 -0.0287525 9.1498 -0.0287525 7.14273 0.0862576C5.20075 0.179361 3.47576 0.628448 2.04911 2.06334C0.622463 3.49823 0.183077 5.23981 0.0854361 7.20593C-0.0284787 9.2323 -0.0284787 15.3059 0.0854361 17.3323C0.177653 19.2984 0.622463 21.04 2.04911 22.4749C3.47576 23.9098 5.19533 24.3589 7.14273 24.4575C9.1498 24.5725 15.1656 24.5725 17.1727 24.4575C19.1201 24.3644 20.8451 23.9153 22.2663 22.4749C23.6875 21.04 24.1323 19.2984 24.23 17.3323C24.3439 15.3059 24.3439 9.23778 24.23 7.21141ZM21.637 19.5065C21.2139 20.58 20.3948 21.4069 19.3262 21.8396C17.726 22.4804 13.9288 22.3325 12.1604 22.3325C10.392 22.3325 6.58943 22.4749 4.99462 21.8396C3.93142 21.4124 3.11232 20.5854 2.68378 19.5065C2.04911 17.8909 2.19557 14.0573 2.19557 12.2719C2.19557 10.4865 2.05453 6.64731 2.68378 5.03717C3.10689 3.96374 3.92599 3.13676 4.99462 2.70411C6.59485 2.06334 10.392 2.21121 12.1604 2.21121C13.9288 2.21121 17.7314 2.06881 19.3262 2.70411C20.3894 3.13129 21.2085 3.95827 21.637 5.03717C22.2717 6.65279 22.1252 10.4865 22.1252 12.2719C22.1252 14.0573 22.2717 17.8964 21.637 19.5065Z" fill="#B8B8B8"/>
</svg>
